<?xml version="1.0"?><svg fill="#000000" xmlns="http://www.w3.org/2000/svg"  viewBox="0 0 24 24" width="24px" height="24px">    <path d="M 4 3 C 3.448 3 3 3.448 3 4 L 3 6 C 3 6.552 3.448 7 4 7 L 20 7 C 20.552 7 21 6.552 21 6 L 21 4 C 21 3.448 20.552 3 20 3 L 4 3 z M 4 10 C 3.448 10 3 10.448 3 11 L 3 13 C 3 13.552 3.448 14 4 14 L 20 14 C 20.552 14 21 13.552 21 13 L 21 11 C 21 10.448 20.552 10 20 10 L 4 10 z M 4 17 C 3.448 17 3 17.448 3 18 L 3 20 C 3 20.552 3.448 21 4 21 L 20 21 C 20.552 21 21 20.552 21 20 L 21 18 C 21 17.448 20.552 17 20 17 L 4 17 z"/></svg>