<?xml version="1.0"?><svg fill="#000000" xmlns="http://www.w3.org/2000/svg"  viewBox="0 0 24 24" width="24px" height="24px">    <path d="M 16.984375 1.9863281 A 1.0001 1.0001 0 0 0 16 3 L 16 18 L 14.599609 18 C 14.276609 18 13.985328 18.194141 13.861328 18.494141 C 13.820328 18.593141 13.800781 18.697781 13.800781 18.800781 C 13.800781 19.008781 13.881203 19.212234 14.033203 19.365234 L 16.433594 21.765625 C 16.746594 22.077625 17.254406 22.078625 17.566406 21.765625 L 19.966797 19.365234 C 20.195797 19.136234 20.263625 18.792188 20.140625 18.492188 C 20.015625 18.193187 19.724391 18 19.400391 18 L 18 18 L 18 3 A 1.0001 1.0001 0 0 0 16.984375 1.9863281 z M 7.4765625 2 A 1.0001 1.0001 0 0 0 6.5761719 2.6152344 L 4.0761719 8.6152344 A 1.0007512 1.0007512 0 1 0 5.9238281 9.3847656 L 6.0839844 9 L 8.9160156 9 L 9.0761719 9.3847656 A 1.0007511 1.0007511 0 0 0 10.923828 8.6152344 L 8.4238281 2.6152344 A 1.0001 1.0001 0 0 0 7.4765625 2 z M 7.5 5.6015625 L 8.0820312 7 L 6.9179688 7 L 7.5 5.6015625 z M 4.9863281 13 C 4.4413281 13 4 13.442328 4 13.986328 L 4 14.013672 C 4 14.558672 4.4413281 15 4.9863281 15 L 8 15 L 4.2441406 19.283203 C 4.0861406 19.463203 4 19.694594 4 19.933594 L 4 20.013672 C 4 20.558672 4.4413281 21 4.9863281 21 L 10.013672 21 C 10.558672 21 11 20.557672 11 20.013672 L 11 19.986328 C 11 19.441328 10.558672 19 10.013672 19 L 7 19 L 10.755859 14.699219 C 10.912859 14.519219 11 14.289781 11 14.050781 L 11 13.986328 C 11 13.441328 10.557672 13 10.013672 13 L 4.9863281 13 z"/></svg>