<?xml version="1.0"?><svg fill="#000000" xmlns="http://www.w3.org/2000/svg"  viewBox="0 0 24 24" width="24px" height="24px">    <path d="M 16.984375 1.9863281 A 1.0001 1.0001 0 0 0 16 3 L 16 18 L 14.599609 18 C 14.276609 18 13.985328 18.194141 13.861328 18.494141 C 13.820328 18.593141 13.800781 18.697781 13.800781 18.800781 C 13.800781 19.008781 13.881203 19.212234 14.033203 19.365234 L 16.433594 21.765625 C 16.746594 22.077625 17.254406 22.078625 17.566406 21.765625 L 19.966797 19.365234 C 20.195797 19.136234 20.263625 18.792188 20.140625 18.492188 C 20.015625 18.193187 19.724391 18 19.400391 18 L 18 18 L 18 3 A 1.0001 1.0001 0 0 0 16.984375 1.9863281 z M 4.9863281 2 C 4.4413281 2 4 2.4413281 4 2.9863281 L 4 3.0136719 C 4 3.5586719 4.4413281 4 4.9863281 4 L 8 4 L 4.2441406 8.2832031 C 4.0861406 8.4632031 4 8.6945937 4 8.9335938 L 4 9.0136719 C 4 9.5586719 4.4413281 10 4.9863281 10 L 10.013672 10 C 10.558672 10 11 9.5576719 11 9.0136719 L 11 8.9863281 C 11 8.4413281 10.558672 8 10.013672 8 L 7 8 L 10.755859 3.6992188 C 10.912859 3.5192187 11 3.2897812 11 3.0507812 L 11 2.9863281 C 11 2.4413281 10.557672 2 10.013672 2 L 4.9863281 2 z M 7.4765625 13 A 1.0001 1.0001 0 0 0 6.5761719 13.615234 L 4.0761719 19.615234 A 1.0007513 1.0007513 0 0 0 5.9238281 20.384766 L 6.0839844 20 L 8.9160156 20 L 9.0761719 20.384766 A 1.0007513 1.0007513 0 0 0 10.923828 19.615234 L 8.4238281 13.615234 A 1.0001 1.0001 0 0 0 7.4765625 13 z M 7.5 16.601562 L 8.0820312 18 L 6.9179688 18 L 7.5 16.601562 z"/></svg>