<?xml version="1.0"?><svg fill="#000000" xmlns="http://www.w3.org/2000/svg"  viewBox="0 0 24 24" width="24px" height="24px">    <path d="M 4 3 C 3.448 3 3 3.448 3 4 C 3 4.552 3.448 5 4 5 L 9 13 L 9 20 C 9 20.552 9.448 21 10 21 L 12.294922 21 C 12.105922 20.366 12 19.695 12 19 C 12 16.622 13.188 14.524766 15 13.259766 L 15 13 L 20 5 C 20.552 5 21 4.552 21 4 C 21 3.448 20.552 3 20 3 L 4 3 z M 19.007812 14.019531 C 17.627813 14.019531 16.378609 14.572563 15.474609 15.476562 C 14.570609 16.380562 14.017578 17.629766 14.017578 19.009766 C 14.017578 21.769766 16.249766 24 19.009766 24 C 21.769766 24 24 21.770766 24 19.009766 C 23.999 16.252766 21.767813 14.020531 19.007812 14.019531 z M 17.601562 16.59375 C 17.857563 16.59375 18.113594 16.691719 18.308594 16.886719 L 19.015625 17.59375 L 19.722656 16.886719 C 20.112656 16.496719 20.746719 16.496719 21.136719 16.886719 C 21.526719 17.276719 21.526719 17.910781 21.136719 18.300781 L 20.429688 19.007812 L 21.136719 19.714844 C 21.526719 20.104844 21.526719 20.738906 21.136719 21.128906 C 20.746719 21.518906 20.112656 21.518906 19.722656 21.128906 L 19.015625 20.421875 L 18.308594 21.128906 C 17.918594 21.518906 17.284531 21.518906 16.894531 21.128906 C 16.504531 20.738906 16.504531 20.104844 16.894531 19.714844 L 17.601562 19.007812 L 16.894531 18.300781 C 16.504531 17.910781 16.504531 17.276719 16.894531 16.886719 C 17.089531 16.691719 17.345562 16.59375 17.601562 16.59375 z"/></svg>