<?xml version="1.0"?><svg fill="#000000" xmlns="http://www.w3.org/2000/svg"  viewBox="0 0 24 24" width="24px" height="24px">    <path d="M 6.109375 2 C 5.555375 2 5.2789219 2.6695469 5.6699219 3.0605469 L 7.3359375 4.7246094 C 7.7029375 5.0916094 8.2970625 5.0916094 8.6640625 4.7246094 L 10.332031 3.0585938 C 10.722031 2.6685937 10.446531 2 9.8945312 2 L 6.109375 2 z M 15 2 C 14.7235 2 14.447328 2.1054063 14.236328 2.3164062 L 12.769531 3.7832031 C 12.320531 4.2322031 12.637484 5 13.271484 5 L 16.726562 5 C 17.361563 5 17.679469 4.2322031 17.230469 3.7832031 L 15.763672 2.3164062 C 15.552672 2.1054062 15.2765 2 15 2 z M 4 7 C 3.448 7 3 7.448 3 8 C 3 8.552 3.448 9 4 9 L 10 16.712891 L 10 21 C 10 21.552 10.448 22 11 22 L 13 22 C 13.552 22 14 21.552 14 21 L 14 16.712891 L 20 9 C 20.552 9 21 8.552 21 8 C 21 7.448 20.552 7 20 7 L 4 7 z"/></svg>