<?xml version="1.0"?><svg fill="#000000" xmlns="http://www.w3.org/2000/svg"  viewBox="0 0 24 24" width="24px" height="24px">    <path d="M 4 3 C 3.448 3 3 3.448 3 4 C 3 4.552 3.448 5 4 5 L 10 14.537109 L 10 20 C 10 20.552 10.448 21 11 21 L 13 21 C 13.552 21 14 20.552 14 20 L 14 14.537109 L 20 5 C 20.552 5 21 4.552 21 4 C 21 3.448 20.552 3 20 3 L 4 3 z M 22.580078 15.003906 C 22.218078 15.003906 21.856078 15.143422 21.580078 15.419922 L 20.853516 16.146484 L 22.853516 18.146484 L 23.580078 17.419922 C 24.132078 16.867922 24.132078 15.971922 23.580078 15.419922 C 23.304078 15.143422 22.942078 15.003906 22.580078 15.003906 z M 20.146484 16.853516 L 15.146484 21.853516 C 15.053484 21.947516 15 22.074031 15 22.207031 L 15 23.5 C 15 23.776 15.224 24 15.5 24 L 16.792969 24 C 16.924969 24 17.052484 23.946516 17.146484 23.853516 L 22.146484 18.853516 L 20.146484 16.853516 z"/></svg>