<?xml version="1.0"?><svg fill="#000000" xmlns="http://www.w3.org/2000/svg"  viewBox="0 0 24 24" width="24px" height="24px">    <path d="M 5 3 C 3.895 3 3 3.895 3 5 L 3 19 C 3 20.105 3.895 21 5 21 L 12 21 C 12.552 21 13 20.552 13 20 L 13 18 C 13 17.448 12.552 17 12 17 L 8 17 C 7.448 17 7 16.552 7 16 C 7 15.448 7.448 15 8 15 L 12 15 C 12.552 15 13 14.552 13 14 C 13 13.448 12.552 13 12 13 L 8 13 C 7.448 13 7 12.552 7 12 C 7 11.448 7.448 11 8 11 L 16 11 C 16.552 11 17 11.448 17 12 C 17 12.552 17.448 13 18 13 L 20 13 C 20.552 13 21 12.552 21 12 L 21 5 C 21 3.895 20.105 3 19 3 L 5 3 z M 8 7 L 16 7 C 16.552 7 17 7.448 17 8 C 17 8.552 16.552 9 16 9 L 8 9 C 7.448 9 7 8.552 7 8 C 7 7.448 7.448 7 8 7 z M 17 15 C 16.448 15 16 15.448 16 16 C 15.448 16 15 16.448 15 17 C 15 17.552 15.448 18 16 18 L 16 20 C 15.448 20 15 20.448 15 21 C 15 21.552 15.448 22 16 22 C 16 22.552 16.448 23 17 23 C 17.552 23 18 22.552 18 22 L 20 22 C 20 22.552 20.448 23 21 23 C 21.552 23 22 22.552 22 22 C 22.552 22 23 21.552 23 21 C 23 20.448 22.552 20 22 20 L 22 18 C 22.552 18 23 17.552 23 17 C 23 16.448 22.552 16 22 16 C 22 15.448 21.552 15 21 15 C 20.448 15 20 15.448 20 16 L 18 16 C 18 15.448 17.552 15 17 15 z M 18 18 L 20 18 L 20 20 L 18 20 L 18 18 z"/></svg>