<?xml version="1.0"?><svg fill="#000000" xmlns="http://www.w3.org/2000/svg"  viewBox="0 0 24 24" width="24px" height="24px">    <path d="M 4 3 C 3.448 3 3 3.448 3 4 L 3 6 C 3 6.552 3.448 7 4 7 L 20 7 C 20.552 7 21 6.552 21 6 L 21 4 C 21 3.448 20.552 3 20 3 L 4 3 z M 4 10 C 3.448 10 3 10.448 3 11 L 3 13 C 3 13.552 3.448 14 4 14 L 20 14 C 20.552 14 21 13.552 21 13 L 21 11 C 21 10.448 20.552 10 20 10 L 4 10 z M 18 16 C 17.448 16 17 16.448 17 17 C 16.448 17 16 17.448 16 18 C 16 18.552 16.448 19 17 19 L 17 21 C 16.448 21 16 21.448 16 22 C 16 22.552 16.448 23 17 23 C 17 23.552 17.448 24 18 24 C 18.552 24 19 23.552 19 23 L 21 23 C 21 23.552 21.448 24 22 24 C 22.552 24 23 23.552 23 23 C 23.552 23 24 22.552 24 22 C 24 21.448 23.552 21 23 21 L 23 19 C 23.552 19 24 18.552 24 18 C 24 17.448 23.552 17 23 17 C 23 16.448 22.552 16 22 16 C 21.448 16 21 16.448 21 17 L 19 17 C 19 16.448 18.552 16 18 16 z M 4 17 C 3.448 17 3 17.448 3 18 L 3 20 C 3 20.552 3.448 21 4 21 L 13 21 C 13.552 21 14 20.552 14 20 L 14 18 C 14 17.448 13.552 17 13 17 L 4 17 z M 19 19 L 21 19 L 21 21 L 19 21 L 19 19 z"/></svg>