<svg fill="#000000" xmlns="http://www.w3.org/2000/svg"  viewBox="0 0 24 24" width="24px" height="24px"><path d="M 16.984375 1.9863281 A 1.0001 1.0001 0 0 0 16 3 L 16 18 L 14.599609 18 C 14.276609 18 13.985328 18.194141 13.861328 18.494141 C 13.820328 18.593141 13.800781 18.697781 13.800781 18.800781 C 13.800781 19.008781 13.881203 19.212234 14.033203 19.365234 L 16.433594 21.765625 C 16.746594 22.077625 17.254406 22.078625 17.566406 21.765625 L 19.966797 19.365234 C 20.195797 19.136234 20.263625 18.792188 20.140625 18.492188 C 20.015625 18.193187 19.724391 18 19.400391 18 L 18 18 L 18 3 A 1.0001 1.0001 0 0 0 16.984375 1.9863281 z M 7 2 C 5.6666667 2 4.7247257 2.8142205 4.3554688 3.5527344 A 1.0001163 1.0001163 0 1 0 6.1445312 4.4472656 C 6.2752744 4.1857795 6.3333333 4 7 4 C 7.6666667 4 7.7247257 4.1857795 7.8554688 4.4472656 C 7.9862118 4.7087517 8 5 8 5 C 8 5.0357224 7.9101688 5.3291686 7.6113281 5.6835938 C 7.3124874 6.0380187 6.8586319 6.436578 6.3945312 6.7890625 C 5.4663299 7.4940314 4.5214844 8.0136719 4.5214844 8.0136719 A 1.0001 1.0001 0 0 0 4 8.890625 L 4 9 A 1.0001 1.0001 0 0 0 5 10 L 9 10 A 1.0001 1.0001 0 1 0 9 8 L 8.0195312 8 C 8.4094646 7.6788259 8.8094357 7.3631304 9.1386719 6.9726562 C 9.5898312 6.4375813 10 5.8172776 10 5 C 10 5 10.013788 4.2912483 9.6445312 3.5527344 C 9.2752744 2.8142205 8.3333333 2 7 2 z M 8.0742188 13.003906 C 8.0055039 13.010623 7.9361875 13.025906 7.8671875 13.050781 L 5.6386719 14.207031 C 5.2546719 14.356031 5 14.727625 5 15.140625 C 4.983 15.703625 5.4234844 16.012047 6.0214844 15.873047 L 7 15.390625 L 7 20 C 7 20.552 7.448 21 8 21 C 8.552 21 9 20.552 9 20 L 9 13.847656 C 9 13.334906 8.5552227 12.956889 8.0742188 13.003906 z"/></svg>