<svg fill="#000000" xmlns="http://www.w3.org/2000/svg"  viewBox="0 0 24 24" width="24px" height="24px"><path d="M 16.984375 1.9863281 A 1.0001 1.0001 0 0 0 16 3 L 16 18 L 14.599609 18 C 14.276609 18 13.985328 18.194141 13.861328 18.494141 C 13.820328 18.593141 13.800781 18.697781 13.800781 18.800781 C 13.800781 19.008781 13.881203 19.212234 14.033203 19.365234 L 16.433594 21.765625 C 16.746594 22.077625 17.254406 22.078625 17.566406 21.765625 L 19.966797 19.365234 C 20.195797 19.136234 20.263625 18.792188 20.140625 18.492188 C 20.015625 18.193187 19.724391 18 19.400391 18 L 18 18 L 18 3 A 1.0001 1.0001 0 0 0 16.984375 1.9863281 z M 8.0742188 2.0039062 C 8.0055039 2.010623 7.9361875 2.0259063 7.8671875 2.0507812 L 5.6386719 3.2070312 C 5.2546719 3.3560313 5 3.727625 5 4.140625 C 4.983 4.703625 5.4234844 5.0130469 6.0214844 4.8730469 L 7 4.390625 L 7 9 C 7 9.552 7.448 10 8 10 C 8.552 10 9 9.552 9 9 L 9 2.8476562 C 9 2.3349062 8.5552227 1.9568887 8.0742188 2.0039062 z M 7 13 C 5.6666667 13 4.7247256 13.81422 4.3554688 14.552734 A 1.0001165 1.0001165 0 1 0 6.1445312 15.447266 C 6.2752744 15.18578 6.3333333 15 7 15 C 7.6666667 15 7.7247257 15.18578 7.8554688 15.447266 C 7.9862118 15.708752 8 16 8 16 C 8 16.03572 7.910169 16.329169 7.6113281 16.683594 C 7.3124874 17.038019 6.858632 17.436579 6.3945312 17.789062 C 5.46633 18.494031 4.5214844 19.013672 4.5214844 19.013672 A 1.0001 1.0001 0 0 0 4 19.890625 L 4 20 A 1.0001 1.0001 0 0 0 5 21 L 9 21 A 1.0001 1.0001 0 1 0 9 19 L 8.0195312 19 C 8.4094646 18.678826 8.8094357 18.36313 9.1386719 17.972656 C 9.5898312 17.437581 10 16.817278 10 16 C 10 16 10.013788 15.291248 9.6445312 14.552734 C 9.2752744 13.81422 8.3333333 13 7 13 z"/></svg>