<svg fill="#000000" xmlns="http://www.w3.org/2000/svg"  viewBox="0 0 24 24" width="24px" height="24px"><path d="M 7.0039062 2.0019531 C 6.7906562 2.0019531 6.5765625 2.0816406 6.4140625 2.2441406 L 2.9902344 5.9375 C 2.6142344 6.3425 2.901125 7 3.453125 7 L 6 7 L 6 12 A 1.0001 1.0001 0 1 0 8 12 L 8 7 L 10.552734 7 C 11.105734 7 11.392625 6.3425 11.015625 5.9375 L 7.5917969 2.2441406 C 7.4292969 2.0816406 7.2171563 2.0019531 7.0039062 2.0019531 z M 17 3 C 16.448 3 16 3.448 16 4 C 16 4.552 16.448 5 17 5 C 17.552 5 18 4.552 18 4 C 18 3.448 17.552 3 17 3 z M 17 7 C 16.448 7 16 7.448 16 8 C 16 8.552 16.448 9 17 9 C 17.552 9 18 8.552 18 8 C 18 7.448 17.552 7 17 7 z M 16.984375 10.986328 A 1.0001 1.0001 0 0 0 16 12 L 16 17 L 13.453125 17 C 12.901125 17 12.614234 17.6575 12.990234 18.0625 L 16.414062 21.755859 C 16.739062 22.080859 17.266797 22.080859 17.591797 21.755859 L 21.015625 18.0625 C 21.392625 17.6575 21.105734 17 20.552734 17 L 18 17 L 18 12 A 1.0001 1.0001 0 0 0 16.984375 10.986328 z M 7 15 C 6.448 15 6 15.448 6 16 C 6 16.552 6.448 17 7 17 C 7.552 17 8 16.552 8 16 C 8 15.448 7.552 15 7 15 z M 7 19 C 6.448 19 6 19.448 6 20 C 6 20.552 6.448 21 7 21 C 7.552 21 8 20.552 8 20 C 8 19.448 7.552 19 7 19 z"/></svg>