<svg fill="#000000" xmlns="http://www.w3.org/2000/svg"  viewBox="0 0 24 24" width="24px" height="24px"><path d="M 2.984375 2.9863281 A 1.0001 1.0001 0 0 0 2 4 L 2 15 C 2 16.093063 2.9069372 17 4 17 L 11 17 L 11 19 L 9.4765625 19 C 8.7695625 19 8.4150156 19.855469 8.9160156 20.355469 L 11.25 22.689453 C 11.665 23.104453 12.336953 23.104453 12.751953 22.689453 L 15.085938 20.355469 C 15.585938 19.855469 15.232391 19 14.525391 19 L 13 19 L 13 17 L 20 17 C 21.093063 17 22 16.093063 22 15 L 22 4 A 1.0001 1.0001 0 1 0 20 4 L 20 15 L 12.154297 15 A 1.0001 1.0001 0 0 0 11.984375 14.986328 A 1.0001 1.0001 0 0 0 11.839844 15 L 4 15 L 4 4 A 1.0001 1.0001 0 0 0 2.984375 2.9863281 z M 9.0253906 4.9863281 C 8.4969219 4.9737656 8 5.3908281 8 5.9863281 L 8 11.984375 C 8 12.786375 8.8955938 13.2615 9.5585938 12.8125 L 13.673828 9.765625 C 13.819207 9.667063 13.926904 9.5400574 14 9.3984375 L 14 12 A 1.0001 1.0001 0 1 0 16 12 L 16 6 A 1.0001 1.0001 0 0 0 14.984375 4.9863281 A 1.0001 1.0001 0 0 0 14 6 L 14 8.4765625 C 13.92484 8.331352 13.813021 8.2025197 13.662109 8.1035156 L 9.546875 5.1523438 C 9.380875 5.0433438 9.2015469 4.9905156 9.0253906 4.9863281 z"/></svg>