<svg fill="#000000" xmlns="http://www.w3.org/2000/svg"  viewBox="0 0 24 24" width="24px" height="24px"><path d="M 2.984375 2.9863281 A 1.0001 1.0001 0 0 0 2 4 L 2 15 C 2 16.093063 2.9069372 17 4 17 L 11 17 L 11 19 L 9.4765625 19 C 8.7695625 19 8.4150156 19.855469 8.9160156 20.355469 L 11.25 22.689453 C 11.665 23.104453 12.336953 23.104453 12.751953 22.689453 L 15.085938 20.355469 C 15.585938 19.855469 15.232391 19 14.525391 19 L 13 19 L 13 17 L 20 17 C 21.093063 17 22 16.093063 22 15 L 22 4 A 1.0001 1.0001 0 1 0 20 4 L 20 15 L 12.154297 15 A 1.0001 1.0001 0 0 0 11.984375 14.986328 A 1.0001 1.0001 0 0 0 11.839844 15 L 4 15 L 4 4 A 1.0001 1.0001 0 0 0 2.984375 2.9863281 z M 13.707031 5.6855469 C 13.334473 5.7298633 13 6.0346875 13 6.4765625 L 13 8 L 7 8 A 1.0001 1.0001 0 1 0 7 10 L 13 10 L 13 11.523438 C 13 12.230438 13.855469 12.584984 14.355469 12.083984 L 16.689453 9.75 C 17.104453 9.335 17.104453 8.6630469 16.689453 8.2480469 L 14.355469 5.9140625 C 14.167969 5.7269375 13.930566 5.658957 13.707031 5.6855469 z"/></svg>