<?xml version="1.0"?><svg fill="#000000" xmlns="http://www.w3.org/2000/svg"  viewBox="0 0 24 24" width="24px" height="24px">    <path d="M 3 3 C 2.448 3 2 3.448 2 4 C 2 4.552 2.448 5 3 5 L 8 13.287109 L 8 20 C 8 20.552 8.448 21 9 21 L 10.587891 21 C 10.211891 20.073 10 19.062 10 18 C 10 14.892 11.776234 12.204859 14.365234 10.880859 L 14.792969 10.316406 L 18 5 C 18.552 5 19 4.552 19 4 C 19 3.448 18.552 3 18 3 L 3 3 z M 18 12 C 14.698136 12 12 14.698136 12 18 C 12 21.301864 14.698136 24 18 24 C 21.301864 24 24 21.301864 24 18 C 24 14.698136 21.301864 12 18 12 z M 18 14 C 20.220984 14 22 15.779016 22 18 C 22 20.220984 20.220984 22 18 22 C 15.779016 22 14 20.220984 14 18 C 14 15.779016 15.779016 14 18 14 z M 18.490234 15.599609 L 16.525391 16.376953 C 16.207391 16.506953 16 16.815203 16 17.158203 C 16.048 17.564203 16.369062 17.667297 16.789062 17.529297 L 17.164062 17.408203 L 17.164062 19.583984 C 17.164062 20.034984 17.529469 20.400391 17.980469 20.400391 C 18.431469 20.400391 18.796875 20.034984 18.796875 19.583984 L 18.796875 15.599609 L 18.490234 15.599609 z"/></svg>