<svg fill="#000000" xmlns="http://www.w3.org/2000/svg"  viewBox="0 0 24 24" width="24px" height="24px"><path d="M 2.984375 2.9863281 A 1.0001 1.0001 0 0 0 2 4 L 2 15 C 2 16.093063 2.9069372 17 4 17 L 11 17 L 11 19 L 9.4765625 19 C 8.7695625 19 8.4150156 19.855469 8.9160156 20.355469 L 11.25 22.689453 C 11.665 23.104453 12.336953 23.104453 12.751953 22.689453 L 15.085938 20.355469 C 15.585938 19.855469 15.232391 19 14.525391 19 L 13 19 L 13 17 L 20 17 C 21.093063 17 22 16.093063 22 15 L 22 4 A 1.0001 1.0001 0 1 0 20 4 L 20 15 L 12.154297 15 A 1.0001 1.0001 0 0 0 11.984375 14.986328 A 1.0001 1.0001 0 0 0 11.839844 15 L 4 15 L 4 4 A 1.0001 1.0001 0 0 0 2.984375 2.9863281 z M 15.585938 3 C 15.223937 3 14.861937 3.1380625 14.585938 3.4140625 L 13.878906 4.1210938 L 15.878906 6.1210938 L 16.585938 5.4140625 C 17.137937 4.8620625 17.137937 3.9660625 16.585938 3.4140625 C 16.309938 3.1380625 15.947938 3 15.585938 3 z M 13.171875 4.828125 L 7.1464844 10.853516 C 7.0534844 10.947516 7 11.074031 7 11.207031 L 7 12.5 C 7 12.776 7.224 13 7.5 13 L 8.7929688 13 C 8.9249688 13 9.0514844 12.947516 9.1464844 12.853516 L 15.171875 6.828125 L 13.171875 4.828125 z"/></svg>