<svg fill="#000000" xmlns="http://www.w3.org/2000/svg"  viewBox="0 0 24 24" width="24px" height="24px"><path d="M 2.984375 2.9863281 A 1.0001 1.0001 0 0 0 2 4 L 2 15 C 2 16.093063 2.9069372 17 4 17 L 11 17 L 11 19 L 9.4765625 19 C 8.7695625 19 8.4150156 19.855469 8.9160156 20.355469 L 11.25 22.689453 C 11.665 23.104453 12.336953 23.104453 12.751953 22.689453 L 15.085938 20.355469 C 15.585938 19.855469 15.232391 19 14.525391 19 L 13 19 L 13 17 L 20 17 C 21.093063 17 22 16.093063 22 15 L 22 4 A 1.0001 1.0001 0 1 0 20 4 L 20 15 L 12.154297 15 A 1.0001 1.0001 0 0 0 11.984375 14.986328 A 1.0001 1.0001 0 0 0 11.839844 15 L 4 15 L 4 4 A 1.0001 1.0001 0 0 0 2.984375 2.9863281 z M 11.984375 4.9863281 A 1.0001 1.0001 0 0 0 11 6 L 11 8 L 9 8 A 1.0001 1.0001 0 1 0 9 10 L 11 10 L 11 12 A 1.0001 1.0001 0 1 0 13 12 L 13 10 L 15 10 A 1.0001 1.0001 0 1 0 15 8 L 13 8 L 13 6 A 1.0001 1.0001 0 0 0 11.984375 4.9863281 z"/></svg>