<svg fill="#000000" xmlns="http://www.w3.org/2000/svg"  viewBox="0 0 24 24" width="24px" height="24px"><path d="M 2.984375 2.9863281 A 1.0001 1.0001 0 0 0 2 4 L 2 15 C 2 16.093063 2.9069372 17 4 17 L 11 17 L 11 19 L 9.4765625 19 C 8.7695625 19 8.4150156 19.855469 8.9160156 20.355469 L 11.25 22.689453 C 11.665 23.104453 12.336953 23.104453 12.751953 22.689453 L 15.085938 20.355469 C 15.585938 19.855469 15.232391 19 14.525391 19 L 13 19 L 13 17 L 20 17 C 21.093063 17 22 16.093063 22 15 L 22 4 A 1.0001 1.0001 0 1 0 20 4 L 20 15 L 12.154297 15 A 1.0001 1.0001 0 0 0 11.984375 14.986328 A 1.0001 1.0001 0 0 0 11.839844 15 L 4 15 L 4 4 A 1.0001 1.0001 0 0 0 2.984375 2.9863281 z M 8.984375 4.9863281 A 1.0001 1.0001 0 0 0 8 6 L 8 12 A 1.0001 1.0001 0 1 0 10 12 L 10 9.3984375 C 10.073096 9.5400574 10.180793 9.667063 10.326172 9.765625 L 14.441406 12.8125 C 15.104406 13.2615 16 12.786375 16 11.984375 L 16 5.9863281 C 16 5.1923281 15.117125 4.7153906 14.453125 5.1503906 L 10.337891 8.1035156 C 10.186979 8.2025197 10.07516 8.331352 10 8.4765625 L 10 6 A 1.0001 1.0001 0 0 0 8.984375 4.9863281 z"/></svg>