<?xml version="1.0"?><svg fill="#000000" xmlns="http://www.w3.org/2000/svg"  viewBox="0 0 24 24" width="24px" height="24px">    <path d="M 2.984375 2.9863281 A 1.0001 1.0001 0 0 0 2 4 L 2 15 C 2 16.093063 2.9069372 17 4 17 L 11 17 L 11 19 L 9.4765625 19 C 8.7695625 19 8.4150156 19.855469 8.9160156 20.355469 L 11.25 22.689453 C 11.665 23.104453 12.336953 23.104453 12.751953 22.689453 L 15.085938 20.355469 C 15.585938 19.855469 15.232391 19 14.525391 19 L 13 19 L 13 17 L 20 17 C 21.093063 17 22 16.093063 22 15 L 22 4 A 1.0001 1.0001 0 1 0 20 4 L 20 15 L 12.154297 15 A 1.0001 1.0001 0 0 0 11.984375 14.986328 A 1.0001 1.0001 0 0 0 11.839844 15 L 4 15 L 4 4 A 1.0001 1.0001 0 0 0 2.984375 2.9863281 z M 12 5 C 8.96 5 6.901875 7.3109219 6.171875 8.4199219 C 5.939875 8.7729219 5.939875 9.2280781 6.171875 9.5800781 C 6.901875 10.689078 8.96 13 12 13 C 15.04 13 17.098125 10.689078 17.828125 9.5800781 C 18.060125 9.2270781 18.060125 8.7719219 17.828125 8.4199219 C 17.098125 7.3109219 15.04 5 12 5 z M 12 7 C 13.104 7 14 7.896 14 9 C 14 10.104 13.104 11 12 11 C 10.896 11 10 10.104 10 9 C 10 7.896 10.896 7 12 7 z"/></svg>